<?xml version="1.0" encoding="utf-8"?><svg xmlns="http://www.w3.org/2000/svg" xmlns:xlink="http://www.w3.org/1999/xlink" width="1920" height="937" preserveAspectRatio="xMidYMid" viewBox="0 0 1920 937" style="z-index:1;margin-right:-2px;display:block;background-repeat-y:initial;background-repeat-x:initial;animation-play-state:paused" ><g transform="" style="animation-play-state:paused" ><linearGradient id="lg-0.4861927052543995" x1="0" x2="1" y1="0" y2="0" style="animation-play-state:paused" ><stop stop-color="#00fff5" offset="0" style="animation-play-state:paused" ></stop>

  
<stop stop-color="#aafbfb" offset="1" style="animation-play-state:paused" ></stop></linearGradient>
<path d="M 1572.4 469 C 1572.4 645.6 1290 912.4 1122.2 967 C 954.4 1021.6 595 952.2 490.8 809.8 C 386.6 667.4 361 251 465.2 108.6 C 569.4 -33.8 935.2 -26.4 1103 28.2 C 1270.8 82.8 1572.4 292.4 1572.4 469" fill="url(#lg-0.4861927052543995)" opacity="0.4" style="opacity:0.4;animation-play-state:paused" ></path>
<path d="M 1618.2 469 C 1618.2 646 1266.2 837.8 1098 892.6 C 929.8 947.4 604.6 946.6 500 803 C 395.4 659.4 379.2 266.2 483.8 122.6 C 588.4 -21 921.4 15.2 1089.6 70 C 1257.8 124.8 1618.2 292 1618.2 469" fill="url(#lg-0.4861927052543995)" opacity="0.4" style="opacity:0.4;animation-play-state:paused" ></path>
<path d="M 1481.2 469 C 1481.2 623.6 1240.6 830.8 1093 878.8 C 945.4 926.8 665.6 873.8 574.4 748.4 C 483.2 623 457.8 295 549 169.6 C 640.2 44.2 922.2 82 1069.6 130.2 C 1217 178.4 1481.2 314.4 1481.2 469" fill="url(#lg-0.4861927052543995)" opacity="0.4" style="opacity:0.4;animation-play-state:paused" ></path>
<path d="M 1555.8 469 C 1555.8 631.8 1253.6 843.2 1098.2 893.6 C 942.8 944 597 934 501.2 802.2 C 405.4 670.4 447 297.2 542.8 165.4 C 638.6 33.6 919.2 64.6 1074.6 115 C 1230 165.4 1555.8 306.2 1555.8 469" fill="url(#lg-0.4861927052543995)" opacity="0.4" style="opacity:0.4;animation-play-state:paused" ></path>
<path d="M 1523.2 469 C 1523.2 638.4 1243.2 790.8 1082 843.4 C 920.8 896 647 905.2 547.6 768.2 C 448.2 631.2 447 304.6 546.4 167.6 C 645.8 30.6 942.8 -26.8 1104 25.8 C 1265.2 78.4 1523.2 299.6 1523.2 469" fill="url(#lg-0.4861927052543995)" opacity="0.4" style="opacity:0.4;animation-play-state:paused" ></path></g></svg>